# Blender 4.0.2
# www.blender.org
mtllib cylinder2.mtl
o Cylinder.001
v 0.000000 0.617826 -0.231817
v -0.000000 1.616726 0.907544
v 0.120532 0.605955 -0.231817
v 0.315408 1.585661 0.907544
v 0.236432 0.570797 -0.231817
v 0.618694 1.493660 0.907544
v 0.343246 0.513704 -0.231817
v 0.898205 1.344259 0.907544
v 0.436869 0.436869 -0.231817
v 1.143198 1.143198 0.907544
v 0.513704 0.343246 -0.231817
v 1.344259 0.898205 0.907544
v 0.570797 0.236432 -0.231817
v 1.493660 0.618694 0.907544
v 0.605955 0.120532 -0.231817
v 1.585661 0.315408 0.907544
v 0.617826 0.000000 -0.231817
v 1.616726 0.000000 0.907544
v 0.605955 -0.120532 -0.231817
v 1.585661 -0.315408 0.907544
v 0.570797 -0.236432 -0.231817
v 1.493660 -0.618694 0.907544
v 0.513704 -0.343246 -0.231817
v 1.344259 -0.898205 0.907544
v 0.436869 -0.436869 -0.231817
v 1.143198 -1.143198 0.907544
v 0.343246 -0.513704 -0.231817
v 0.898205 -1.344259 0.907544
v 0.236432 -0.570797 -0.231817
v 0.618694 -1.493661 0.907544
v 0.120532 -0.605955 -0.231817
v 0.315408 -1.585662 0.907544
v 0.000000 -0.617826 -0.231817
v -0.000000 -1.616726 0.907544
v -0.120532 -0.605955 -0.231817
v -0.315408 -1.585662 0.907544
v -0.236432 -0.570797 -0.231817
v -0.618694 -1.493661 0.907544
v -0.343246 -0.513704 -0.231817
v -0.898205 -1.344259 0.907544
v -0.436869 -0.436869 -0.231817
v -1.143198 -1.143198 0.907544
v -0.513704 -0.343246 -0.231817
v -1.344259 -0.898205 0.907544
v -0.570797 -0.236432 -0.231817
v -1.493660 -0.618694 0.907544
v -0.605955 -0.120532 -0.231817
v -1.585661 -0.315408 0.907544
v -0.617826 0.000000 -0.231817
v -1.616726 0.000000 0.907544
v -0.605955 0.120532 -0.231817
v -1.585661 0.315408 0.907544
v -0.570797 0.236432 -0.231817
v -1.493660 0.618694 0.907544
v -0.513704 0.343246 -0.231817
v -1.344259 0.898205 0.907544
v -0.436869 0.436869 -0.231817
v -1.143198 1.143198 0.907544
v -0.343246 0.513704 -0.231817
v -0.898205 1.344259 0.907544
v -0.236432 0.570797 -0.231817
v -0.618694 1.493660 0.907544
v -0.120532 0.605955 -0.231817
v -0.315408 1.585661 0.907544
v -0.000000 0.894491 0.053023
v -0.000000 1.187909 0.337864
v -0.000000 1.402318 0.622704
v 0.273579 1.375372 0.622704
v 0.231750 1.165084 0.337863
v 0.174506 0.877303 0.053023
v 0.536644 1.295572 0.622704
v 0.454593 1.097485 0.337863
v 0.342307 0.826402 0.053023
v 0.779086 1.165984 0.622704
v 0.659967 0.987710 0.337863
v 0.496952 0.743742 0.053023
v 0.991588 0.991588 0.622704
v 0.839978 0.839978 0.337863
v 0.632500 0.632500 0.053023
v 1.165984 0.779086 0.622704
v 0.987710 0.659967 0.337863
v 0.743742 0.496952 0.053023
v 1.295573 0.536644 0.622704
v 1.097485 0.454593 0.337863
v 0.826401 0.342307 0.053023
v 1.375372 0.273579 0.622704
v 1.165083 0.231750 0.337863
v 0.877303 0.174507 0.053023
v 1.402318 0.000000 0.622704
v 1.187909 0.000000 0.337863
v 0.894491 0.000000 0.053023
v 1.375372 -0.273579 0.622704
v 1.165083 -0.231750 0.337863
v 0.877303 -0.174506 0.053023
v 1.295573 -0.536644 0.622704
v 1.097485 -0.454593 0.337863
v 0.826401 -0.342307 0.053023
v 1.165984 -0.779086 0.622704
v 0.987710 -0.659967 0.337863
v 0.743742 -0.496952 0.053023
v 0.991588 -0.991588 0.622704
v 0.839978 -0.839978 0.337863
v 0.632500 -0.632500 0.053023
v 0.779086 -1.165985 0.622704
v 0.659967 -0.987710 0.337863
v 0.496952 -0.743742 0.053023
v 0.536644 -1.295573 0.622704
v 0.454593 -1.097485 0.337863
v 0.342307 -0.826402 0.053023
v 0.273579 -1.375373 0.622704
v 0.231750 -1.165084 0.337863
v 0.174506 -0.877303 0.053023
v -0.000000 -1.402318 0.622704
v -0.000000 -1.187909 0.337863
v -0.000000 -0.894491 0.053023
v -0.273579 -1.375373 0.622704
v -0.231750 -1.165084 0.337863
v -0.174506 -0.877303 0.053023
v -0.536644 -1.295573 0.622704
v -0.454593 -1.097485 0.337863
v -0.342307 -0.826402 0.053023
v -0.779086 -1.165985 0.622704
v -0.659967 -0.987710 0.337863
v -0.496952 -0.743742 0.053023
v -0.991588 -0.991588 0.622704
v -0.839978 -0.839978 0.337863
v -0.632500 -0.632500 0.053023
v -1.165984 -0.779086 0.622704
v -0.987710 -0.659967 0.337863
v -0.743742 -0.496952 0.053023
v -1.295573 -0.536644 0.622704
v -1.097485 -0.454593 0.337863
v -0.826401 -0.342307 0.053023
v -1.375372 -0.273579 0.622704
v -1.165083 -0.231750 0.337863
v -0.877303 -0.174506 0.053023
v -1.402318 0.000000 0.622704
v -1.187909 0.000000 0.337863
v -0.894491 0.000000 0.053023
v -1.375372 0.273579 0.622704
v -1.165083 0.231750 0.337863
v -0.877303 0.174507 0.053023
v -1.295573 0.536644 0.622704
v -1.097485 0.454593 0.337863
v -0.826401 0.342307 0.053023
v -1.165984 0.779086 0.622704
v -0.987710 0.659967 0.337863
v -0.743742 0.496952 0.053023
v -0.991588 0.991588 0.622704
v -0.839978 0.839978 0.337863
v -0.632500 0.632500 0.053023
v -0.779086 1.165984 0.622704
v -0.659967 0.987710 0.337863
v -0.496952 0.743742 0.053023
v -0.536644 1.295572 0.622704
v -0.454593 1.097485 0.337863
v -0.342307 0.826402 0.053023
v -0.273579 1.375372 0.622704
v -0.231750 1.165084 0.337863
v -0.174506 0.877303 0.053023
vn -0.0000 0.7990 -0.6014
vn 0.1559 0.7836 -0.6014
vn 0.3057 0.7381 -0.6014
vn 0.4439 0.6643 -0.6014
vn 0.5649 0.5649 -0.6014
vn 0.6643 0.4439 -0.6014
vn 0.7381 0.3057 -0.6014
vn 0.7836 0.1559 -0.6014
vn 0.7990 -0.0000 -0.6014
vn 0.7836 -0.1559 -0.6014
vn 0.7381 -0.3057 -0.6014
vn 0.6643 -0.4439 -0.6014
vn 0.5649 -0.5649 -0.6014
vn 0.4439 -0.6643 -0.6014
vn 0.3057 -0.7381 -0.6014
vn 0.1559 -0.7836 -0.6014
vn -0.0000 -0.7990 -0.6014
vn -0.1559 -0.7836 -0.6014
vn -0.3057 -0.7381 -0.6014
vn -0.4439 -0.6643 -0.6014
vn -0.5649 -0.5649 -0.6014
vn -0.6643 -0.4439 -0.6014
vn -0.7381 -0.3057 -0.6014
vn -0.7836 -0.1559 -0.6014
vn -0.7990 -0.0000 -0.6014
vn -0.7836 0.1559 -0.6014
vn -0.7381 0.3057 -0.6014
vn -0.6643 0.4439 -0.6014
vn -0.5649 0.5649 -0.6014
vn -0.4439 0.6643 -0.6014
vn -0.3057 0.7381 -0.6014
vn -0.1559 0.7836 -0.6014
vn -0.1399 0.7035 -0.6967
vn -0.1378 0.6930 -0.7077
vn -0.0000 0.7066 -0.7077
vn -0.0000 0.7173 -0.6967
vn -0.1467 0.7376 -0.6591
vn -0.0000 0.7521 -0.6591
vn -0.2745 0.6627 -0.6967
vn -0.2704 0.6528 -0.7077
vn -0.2878 0.6948 -0.6591
vn -0.3985 0.5964 -0.6967
vn -0.3925 0.5875 -0.7077
vn -0.4178 0.6253 -0.6591
vn -0.5072 0.5072 -0.6967
vn -0.4996 0.4996 -0.7077
vn -0.5318 0.5318 -0.6591
vn -0.5964 0.3985 -0.6967
vn -0.5875 0.3925 -0.7077
vn -0.6253 0.4178 -0.6591
vn -0.6627 0.2745 -0.6967
vn -0.6528 0.2704 -0.7077
vn -0.6948 0.2878 -0.6591
vn -0.7035 0.1399 -0.6967
vn -0.6930 0.1378 -0.7077
vn -0.7376 0.1467 -0.6591
vn -0.7173 -0.0000 -0.6967
vn -0.7066 -0.0000 -0.7077
vn -0.7521 -0.0000 -0.6591
vn -0.7035 -0.1399 -0.6967
vn -0.6930 -0.1378 -0.7077
vn -0.7376 -0.1467 -0.6591
vn -0.6627 -0.2745 -0.6967
vn -0.6528 -0.2704 -0.7077
vn -0.6948 -0.2878 -0.6591
vn -0.5964 -0.3985 -0.6967
vn -0.5875 -0.3925 -0.7077
vn -0.6253 -0.4178 -0.6591
vn -0.5072 -0.5072 -0.6967
vn -0.4996 -0.4996 -0.7077
vn -0.5318 -0.5318 -0.6591
vn -0.3985 -0.5964 -0.6967
vn -0.3925 -0.5875 -0.7077
vn -0.4178 -0.6253 -0.6591
vn -0.2745 -0.6627 -0.6967
vn -0.2704 -0.6528 -0.7077
vn -0.2878 -0.6948 -0.6591
vn -0.1399 -0.7035 -0.6967
vn -0.1378 -0.6930 -0.7077
vn -0.1467 -0.7376 -0.6591
vn -0.0000 -0.7173 -0.6967
vn -0.0000 -0.7066 -0.7077
vn -0.0000 -0.7521 -0.6591
vn 0.1399 -0.7035 -0.6967
vn 0.1378 -0.6930 -0.7077
vn 0.1467 -0.7376 -0.6591
vn 0.2745 -0.6627 -0.6967
vn 0.2704 -0.6528 -0.7077
vn 0.2878 -0.6948 -0.6591
vn 0.3985 -0.5964 -0.6967
vn 0.3925 -0.5875 -0.7077
vn 0.4178 -0.6253 -0.6591
vn 0.5072 -0.5072 -0.6967
vn 0.4996 -0.4996 -0.7077
vn 0.5318 -0.5318 -0.6591
vn 0.5964 -0.3985 -0.6967
vn 0.5875 -0.3925 -0.7077
vn 0.6253 -0.4178 -0.6591
vn 0.6627 -0.2745 -0.6967
vn 0.6528 -0.2704 -0.7077
vn 0.6948 -0.2878 -0.6591
vn 0.7035 -0.1399 -0.6967
vn 0.6930 -0.1378 -0.7077
vn 0.7376 -0.1467 -0.6591
vn 0.7173 -0.0000 -0.6967
vn 0.7066 -0.0000 -0.7077
vn 0.7521 -0.0000 -0.6591
vn 0.7035 0.1399 -0.6967
vn 0.6930 0.1378 -0.7077
vn 0.7376 0.1467 -0.6591
vn 0.6627 0.2745 -0.6967
vn 0.6528 0.2704 -0.7077
vn 0.6948 0.2878 -0.6591
vn 0.5964 0.3985 -0.6967
vn 0.5875 0.3925 -0.7077
vn 0.6253 0.4178 -0.6591
vn 0.5072 0.5072 -0.6967
vn 0.4996 0.4996 -0.7077
vn 0.5318 0.5318 -0.6591
vn 0.3985 0.5964 -0.6967
vn 0.3925 0.5875 -0.7077
vn 0.4178 0.6253 -0.6591
vn 0.2745 0.6627 -0.6967
vn 0.2704 0.6528 -0.7077
vn 0.2878 0.6948 -0.6591
vn 0.1399 0.7035 -0.6967
vn 0.1378 0.6930 -0.7077
vn 0.1467 0.7376 -0.6591
vt 1.000000 0.750000
vt 1.000000 1.000000
vt 0.968750 1.000000
vt 0.968750 0.750000
vt 0.937500 1.000000
vt 0.937500 0.750000
vt 0.906250 1.000000
vt 0.906250 0.750000
vt 0.875000 1.000000
vt 0.875000 0.750000
vt 0.843750 1.000000
vt 0.843750 0.750000
vt 0.812500 1.000000
vt 0.812500 0.750000
vt 0.781250 1.000000
vt 0.781250 0.750000
vt 0.750000 1.000000
vt 0.750000 0.750000
vt 0.718750 1.000000
vt 0.718750 0.750000
vt 0.687500 1.000000
vt 0.687500 0.750000
vt 0.656250 1.000000
vt 0.656250 0.750000
vt 0.625000 1.000000
vt 0.625000 0.750000
vt 0.593750 1.000000
vt 0.593750 0.750000
vt 0.562500 1.000000
vt 0.562500 0.750000
vt 0.531250 1.000000
vt 0.531250 0.750000
vt 0.500000 1.000000
vt 0.500000 0.750000
vt 0.468750 1.000000
vt 0.468750 0.750000
vt 0.437500 1.000000
vt 0.437500 0.750000
vt 0.406250 1.000000
vt 0.406250 0.750000
vt 0.375000 1.000000
vt 0.375000 0.750000
vt 0.343750 1.000000
vt 0.343750 0.750000
vt 0.312500 1.000000
vt 0.312500 0.750000
vt 0.281250 1.000000
vt 0.281250 0.750000
vt 0.250000 1.000000
vt 0.250000 0.750000
vt 0.218750 1.000000
vt 0.218750 0.750000
vt 0.187500 1.000000
vt 0.187500 0.750000
vt 0.156250 1.000000
vt 0.156250 0.750000
vt 0.125000 1.000000
vt 0.125000 0.750000
vt 0.093750 1.000000
vt 0.093750 0.750000
vt 0.062500 1.000000
vt 0.062500 0.750000
vt 0.031250 1.000000
vt 0.031250 0.750000
vt 0.000000 1.000000
vt 0.000000 0.750000
vt 0.031250 0.000000
vt 0.031250 0.250000
vt 0.000000 0.250000
vt 0.000000 0.000000
vt 0.031250 0.500000
vt 0.000000 0.500000
vt 0.062500 0.000000
vt 0.062500 0.250000
vt 0.062500 0.500000
vt 0.093750 0.000000
vt 0.093750 0.250000
vt 0.093750 0.500000
vt 0.125000 0.000000
vt 0.125000 0.250000
vt 0.125000 0.500000
vt 0.156250 0.000000
vt 0.156250 0.250000
vt 0.156250 0.500000
vt 0.187500 0.000000
vt 0.187500 0.250000
vt 0.187500 0.500000
vt 0.218750 0.000000
vt 0.218750 0.250000
vt 0.218750 0.500000
vt 0.250000 0.000000
vt 0.250000 0.250000
vt 0.250000 0.500000
vt 0.281250 0.000000
vt 0.281250 0.250000
vt 0.281250 0.500000
vt 0.312500 0.000000
vt 0.312500 0.250000
vt 0.312500 0.500000
vt 0.343750 0.000000
vt 0.343750 0.250000
vt 0.343750 0.500000
vt 0.375000 0.000000
vt 0.375000 0.250000
vt 0.375000 0.500000
vt 0.406250 0.000000
vt 0.406250 0.250000
vt 0.406250 0.500000
vt 0.437500 0.000000
vt 0.437500 0.250000
vt 0.437500 0.500000
vt 0.468750 0.000000
vt 0.468750 0.250000
vt 0.468750 0.500000
vt 0.500000 0.000000
vt 0.500000 0.250000
vt 0.500000 0.500000
vt 0.531250 0.000000
vt 0.531250 0.250000
vt 0.531250 0.500000
vt 0.562500 0.000000
vt 0.562500 0.250000
vt 0.562500 0.500000
vt 0.593750 0.000000
vt 0.593750 0.250000
vt 0.593750 0.500000
vt 0.625000 0.000000
vt 0.625000 0.250000
vt 0.625000 0.500000
vt 0.656250 0.000000
vt 0.656250 0.250000
vt 0.656250 0.500000
vt 0.687500 0.000000
vt 0.687500 0.250000
vt 0.687500 0.500000
vt 0.718750 0.000000
vt 0.718750 0.250000
vt 0.718750 0.500000
vt 0.750000 0.000000
vt 0.750000 0.250000
vt 0.750000 0.500000
vt 0.781250 0.000000
vt 0.781250 0.250000
vt 0.781250 0.500000
vt 0.812500 0.000000
vt 0.812500 0.250000
vt 0.812500 0.500000
vt 0.843750 0.000000
vt 0.843750 0.250000
vt 0.843750 0.500000
vt 0.875000 0.000000
vt 0.875000 0.250000
vt 0.875000 0.500000
vt 0.906250 0.000000
vt 0.906250 0.250000
vt 0.906250 0.500000
vt 0.937500 0.000000
vt 0.937500 0.250000
vt 0.937500 0.500000
vt 0.968750 0.000000
vt 0.968750 0.250000
vt 0.968750 0.500000
vt 1.000000 0.000000
vt 1.000000 0.250000
vt 1.000000 0.500000
s 1
f 67/1/1 2/2/1 4/3/2 68/4/2
f 68/4/2 4/3/2 6/5/3 71/6/3
f 71/6/3 6/5/3 8/7/4 74/8/4
f 74/8/4 8/7/4 10/9/5 77/10/5
f 77/10/5 10/9/5 12/11/6 80/12/6
f 80/12/6 12/11/6 14/13/7 83/14/7
f 83/14/7 14/13/7 16/15/8 86/16/8
f 86/16/8 16/15/8 18/17/9 89/18/9
f 89/18/9 18/17/9 20/19/10 92/20/10
f 92/20/10 20/19/10 22/21/11 95/22/11
f 95/22/11 22/21/11 24/23/12 98/24/12
f 98/24/12 24/23/12 26/25/13 101/26/13
f 101/26/13 26/25/13 28/27/14 104/28/14
f 104/28/14 28/27/14 30/29/15 107/30/15
f 107/30/15 30/29/15 32/31/16 110/32/16
f 110/32/16 32/31/16 34/33/17 113/34/17
f 113/34/17 34/33/17 36/35/18 116/36/18
f 116/36/18 36/35/18 38/37/19 119/38/19
f 119/38/19 38/37/19 40/39/20 122/40/20
f 122/40/20 40/39/20 42/41/21 125/42/21
f 125/42/21 42/41/21 44/43/22 128/44/22
f 128/44/22 44/43/22 46/45/23 131/46/23
f 131/46/23 46/45/23 48/47/24 134/48/24
f 134/48/24 48/47/24 50/49/25 137/50/25
f 137/50/25 50/49/25 52/51/26 140/52/26
f 140/52/26 52/51/26 54/53/27 143/54/27
f 143/54/27 54/53/27 56/55/28 146/56/28
f 146/56/28 56/55/28 58/57/29 149/58/29
f 149/58/29 58/57/29 60/59/30 152/60/30
f 152/60/30 60/59/30 62/61/31 155/62/31
f 155/62/31 62/61/31 64/63/32 158/64/32
f 158/64/32 64/63/32 2/65/1 67/66/1
f 63/67/33 160/68/34 65/69/35 1/70/36
f 160/68/34 159/71/37 66/72/38 65/69/35
f 159/71/37 158/64/32 67/66/1 66/72/38
f 61/73/39 157/74/40 160/68/34 63/67/33
f 157/74/40 156/75/41 159/71/37 160/68/34
f 156/75/41 155/62/31 158/64/32 159/71/37
f 59/76/42 154/77/43 157/74/40 61/73/39
f 154/77/43 153/78/44 156/75/41 157/74/40
f 153/78/44 152/60/30 155/62/31 156/75/41
f 57/79/45 151/80/46 154/77/43 59/76/42
f 151/80/46 150/81/47 153/78/44 154/77/43
f 150/81/47 149/58/29 152/60/30 153/78/44
f 55/82/48 148/83/49 151/80/46 57/79/45
f 148/83/49 147/84/50 150/81/47 151/80/46
f 147/84/50 146/56/28 149/58/29 150/81/47
f 53/85/51 145/86/52 148/83/49 55/82/48
f 145/86/52 144/87/53 147/84/50 148/83/49
f 144/87/53 143/54/27 146/56/28 147/84/50
f 51/88/54 142/89/55 145/86/52 53/85/51
f 142/89/55 141/90/56 144/87/53 145/86/52
f 141/90/56 140/52/26 143/54/27 144/87/53
f 49/91/57 139/92/58 142/89/55 51/88/54
f 139/92/58 138/93/59 141/90/56 142/89/55
f 138/93/59 137/50/25 140/52/26 141/90/56
f 47/94/60 136/95/61 139/92/58 49/91/57
f 136/95/61 135/96/62 138/93/59 139/92/58
f 135/96/62 134/48/24 137/50/25 138/93/59
f 45/97/63 133/98/64 136/95/61 47/94/60
f 133/98/64 132/99/65 135/96/62 136/95/61
f 132/99/65 131/46/23 134/48/24 135/96/62
f 43/100/66 130/101/67 133/98/64 45/97/63
f 130/101/67 129/102/68 132/99/65 133/98/64
f 129/102/68 128/44/22 131/46/23 132/99/65
f 41/103/69 127/104/70 130/101/67 43/100/66
f 127/104/70 126/105/71 129/102/68 130/101/67
f 126/105/71 125/42/21 128/44/22 129/102/68
f 39/106/72 124/107/73 127/104/70 41/103/69
f 124/107/73 123/108/74 126/105/71 127/104/70
f 123/108/74 122/40/20 125/42/21 126/105/71
f 37/109/75 121/110/76 124/107/73 39/106/72
f 121/110/76 120/111/77 123/108/74 124/107/73
f 120/111/77 119/38/19 122/40/20 123/108/74
f 35/112/78 118/113/79 121/110/76 37/109/75
f 118/113/79 117/114/80 120/111/77 121/110/76
f 117/114/80 116/36/18 119/38/19 120/111/77
f 33/115/81 115/116/82 118/113/79 35/112/78
f 115/116/82 114/117/83 117/114/80 118/113/79
f 114/117/83 113/34/17 116/36/18 117/114/80
f 31/118/84 112/119/85 115/116/82 33/115/81
f 112/119/85 111/120/86 114/117/83 115/116/82
f 111/120/86 110/32/16 113/34/17 114/117/83
f 29/121/87 109/122/88 112/119/85 31/118/84
f 109/122/88 108/123/89 111/120/86 112/119/85
f 108/123/89 107/30/15 110/32/16 111/120/86
f 27/124/90 106/125/91 109/122/88 29/121/87
f 106/125/91 105/126/92 108/123/89 109/122/88
f 105/126/92 104/28/14 107/30/15 108/123/89
f 25/127/93 103/128/94 106/125/91 27/124/90
f 103/128/94 102/129/95 105/126/92 106/125/91
f 102/129/95 101/26/13 104/28/14 105/126/92
f 23/130/96 100/131/97 103/128/94 25/127/93
f 100/131/97 99/132/98 102/129/95 103/128/94
f 99/132/98 98/24/12 101/26/13 102/129/95
f 21/133/99 97/134/100 100/131/97 23/130/96
f 97/134/100 96/135/101 99/132/98 100/131/97
f 96/135/101 95/22/11 98/24/12 99/132/98
f 19/136/102 94/137/103 97/134/100 21/133/99
f 94/137/103 93/138/104 96/135/101 97/134/100
f 93/138/104 92/20/10 95/22/11 96/135/101
f 17/139/105 91/140/106 94/137/103 19/136/102
f 91/140/106 90/141/107 93/138/104 94/137/103
f 90/141/107 89/18/9 92/20/10 93/138/104
f 15/142/108 88/143/109 91/140/106 17/139/105
f 88/143/109 87/144/110 90/141/107 91/140/106
f 87/144/110 86/16/8 89/18/9 90/141/107
f 13/145/111 85/146/112 88/143/109 15/142/108
f 85/146/112 84/147/113 87/144/110 88/143/109
f 84/147/113 83/14/7 86/16/8 87/144/110
f 11/148/114 82/149/115 85/146/112 13/145/111
f 82/149/115 81/150/116 84/147/113 85/146/112
f 81/150/116 80/12/6 83/14/7 84/147/113
f 9/151/117 79/152/118 82/149/115 11/148/114
f 79/152/118 78/153/119 81/150/116 82/149/115
f 78/153/119 77/10/5 80/12/6 81/150/116
f 7/154/120 76/155/121 79/152/118 9/151/117
f 76/155/121 75/156/122 78/153/119 79/152/118
f 75/156/122 74/8/4 77/10/5 78/153/119
f 5/157/123 73/158/124 76/155/121 7/154/120
f 73/158/124 72/159/125 75/156/122 76/155/121
f 72/159/125 71/6/3 74/8/4 75/156/122
f 3/160/126 70/161/127 73/158/124 5/157/123
f 70/161/127 69/162/128 72/159/125 73/158/124
f 69/162/128 68/4/2 71/6/3 72/159/125
f 1/163/36 65/164/35 70/161/127 3/160/126
f 65/164/35 66/165/38 69/162/128 70/161/127
f 66/165/38 67/1/1 68/4/2 69/162/128
